<svg xmlns="http://www.w3.org/2000/svg" width="300" height="300" viewBox="0 0 300 300" xmlns:xlink="http://www.w3.org/1999/xlink">
  <defs>
    <rect id="a" width="300" height="300" rx="16"/>
    <linearGradient id="c" x1="50%" x2="50%" y1="2.758%" y2="100%">
      <stop stop-color="#FFFBFB" offset="0%"/>
      <stop stop-color="#C7C7C7" offset="100%"/>
    </linearGradient>
  </defs>
  <g fill="none" fill-rule="evenodd">
    <mask id="b" fill="white">
      <use xlink:href="#a"/>
    </mask>
    <rect width="300" height="300" fill="#110045" mask="url(#b)" rx="16"/>
    <polygon fill="#FFD300" points="0 163.469 17.612 175.546 47.795 211.835 79.692 251.384 99.993 285.58 115.108 300.383 0 300.383" mask="url(#b)"/>
    <path fill="url(#c)" stroke="#979797" d="M79.2106022,251.063882 C136.51631,171.642517 181.340803,126.717984 213.684082,116.290283 C251.11084,104.223633 279.51355,97.1191406 298.892212,94.9768066 C247.299194,122.65625 216.360474,142.269897 206.07605,153.817749 C195.791626,165.365601 161.158752,209.501648 102.177429,286.225891 L99.7200669,286.459652 C102.652407,286.907322 104.90738,287.715174 106.484985,288.883209 C109.976196,291.468048 112.883759,295.159912 115.207672,299.958801 L88.4518199,287.531564 L51.2649536,291.069031 C60.8426585,276.949373 70.1149671,263.673799 79.0818795,251.242311 L64.2233096,245.86298 L16.3856506,259.107971 C27.4981482,242.581082 38.1985121,227.122101 48.4867421,212.731027 L26.2726196,202.413278 L-1.42108547e-14,200.260162 C5.61266635,191.742619 11.1208521,183.531222 16.5245574,175.625971 L-12.3779297,162.201691 C-2.25219727,161.258698 4.55627441,162.07962 8.04748535,164.664459 C11.4714638,167.19952 14.3340565,170.799379 16.6352635,175.464037 C77.6980097,86.15709 125.412199,35.9637553 159.777832,24.8840332 C197.20459,12.8173828 225.6073,5.71289062 244.985962,3.57055664 C193.392944,31.25 162.454224,50.8636475 152.1698,62.411499 C141.906703,73.9354041 105.223066,120.853593 42.1188894,203.166066 C44.7720902,205.429818 47.058744,208.388811 48.9788508,212.043045 C109.661464,127.253416 155.969457,79.7108282 187.902832,69.4152832 C225.32959,57.3486328 253.7323,50.2441406 273.110962,48.1018066 C221.517944,75.78125 190.579224,95.3948975 180.2948,106.942749 C170.010376,118.490601 134.643555,163.877106 74.1943359,243.102264 L72.4450599,243.586593 C72.8917769,243.821735 73.3009187,244.076857 73.6724854,244.351959 C77.0297217,246.837605 78.8757607,249.074913 79.2106022,251.063882 Z" mask="url(#b)"/>
  </g>
</svg>
